<svg version="1" xmlns="http://www.w3.org/2000/svg" width="892" height="892" viewBox="0 0 669.000000 669.000000"><path d="M424.2 105.2c-2.2 2.2-1.2 6.5 3.3 14.6 3.2 5.7 5 7.9 6 7.5.9-.3 1.5.1 1.5 1 0 .8-.5 1.7-1 1.9-.7.2.1 3 1.8 6.8 1.6 3.6 4 9.6 5.2 13.4l2.3 6.9 1.9-2.6c1.1-1.5 2.4-2.7 2.9-2.7 1.7 0 .9 2.9-1.5 5.6l-2.3 2.8 1.9 7.3c10.7 41.9 5.9 88.9-13.3 129.1-10.2 21.6-23.1 39.3-41 56.7-23.2 22.5-48.8 37.5-79.9 46.8-20.3 6.1-28.5 7.2-55.5 7.2-22.1-.1-25-.3-36.6-2.8-26.4-5.6-50.6-15.7-72.1-30.3-7.5-5-12-7.5-13.7-7.4-4.2.3-4.6.1-2.6-1.4 2.3-1.6 1.6-2.8-4.7-7.7-3.1-2.5-4.1-2.9-5.3-1.9-1 .8-1.5.9-1.5.2 0-.6.5-1.4 1-1.7.8-.5-6.6-9.6-16.7-20.2-4.7-4.9-10.3-1.8-10.3 5.8 0 17.6 7 49.3 16.1 72.5 3.6 9.2 4.2 10.2 6.9 10.8 2.7.5 4.3 2.6 2.1 2.6-2.7 0-1.6 4 3.5 13.2 37.6 67.9 101.9 112.3 178.9 123.4 29.7 4.3 82.7.6 87.1-6.1 1.4-2.1 1.2-2.8-2.1-9.1-6.6-12.9-7-24.1-1.2-36.8 3-6.4 10.4-14.8 16.2-18.1 10-5.8 25.6-7.3 37.4-3.6 9.2 2.9 13.9.2 12.8-7.3-1.5-9.8 4.7-26.1 12.9-33.5 2.5-2.4 7.5-5.7 11.2-7.4 6.3-3 7.4-3.2 17.7-3.2 10.3 0 11.4.2 17.9 3.2 4.6 2.3 8.7 5.2 12.6 9.3 7.9 8.2 9.5 8.1 15.1-.7 15-23.8 26.6-54.5 32-84.8 2.1-11.6 2.4-16 2.4-40.5s-.3-28.9-2.4-40.5c-13.2-73.6-58.1-136.1-122.8-171-5-2.6-5.4-2.7-7.1-1.2-2.2 2.1-5.2 2.2-5.2.3 0-.7.7-2 1.6-2.7 1.4-1.2 1.2-1.5-2.2-3-4.6-2.1-9.5-2.4-11.2-.7zM438 121c0 1.1-.7 2-1.5 2-1.5 0-2.1-2.1-.8-3.3 1.2-1.3 2.3-.7 2.3 1.3zm27.6 5.1c.9 1.6-1.2 3.3-3.1 2.5-1.4-.5-1.5-.9-.5-2.1 1.5-1.8 2.6-1.9 3.6-.4zm-8.3 3.5c1.4 1.4-1.5 4.3-4.8 5-7.3 1.3-8.2-1.6-1.3-4.2 4-1.4 5.3-1.6 6.1-.8zm12.7 10.8c0 1.6-1.8 3.1-2.7 2.2-.8-.8.5-3.6 1.7-3.6.5 0 1 .6 1 1.4zm40 24.9c0 1.5-5.7 7.3-6.5 6.6-.6-.7 4.6-7.9 5.7-7.9.4 0 .8.6.8 1.3zm-48 6.6c0 .5-.9 1.9-2 3.2-1.9 2.3-1.9 2.3-2 .3 0-2 1.7-4.4 3.2-4.4.4 0 .8.4.8.9zm38.4 15.2c-.3.5-1 .7-1.5.3-.5-.3-.7-1-.3-1.5.3-.5 1-.7 1.5-.3.5.3.7 1 .3 1.5zm-17.4 4.3c0 1.8-1.7 2.9-3 2.1-.8-.5-.7-1.1.1-2.1 1.5-1.8 2.9-1.8 2.9 0zm-25 2.5c0 .5-.7 1.4-1.5 2.1-1.2 1-1.5 1-1.5-.2 0-.8.3-1.8.7-2.1.9-1 2.3-.9 2.3.2zm17 7.2c0 .5-.4.9-1 .9-.5 0-1-.7-1-1.6 0-.8.5-1.2 1-.9.6.3 1 1 1 1.6zm10 13.7c0 1.5-2.4 3.2-4.4 3.2-1.8 0-1.9-.1-.1-2 1.8-2 4.5-2.7 4.5-1.2zm30 16c0 1.1-1.1 2.4-2.5 3-2.2 1-2.5.9-2.5-.6 0-2.1 1.9-4.2 3.7-4.2.7 0 1.3.8 1.3 1.8zm-34.6 41.3c-2.7 3-3.3 1.3-1-3.6l2.1-4.6.3 3.2c.2 1.9-.3 3.8-1.4 5zm-380.3 73.2c-.1 1.2-1.5.9-1.9-.4-.3-.6.1-1 .8-.8.6.3 1.1.8 1.1 1.2zm11.9 16.6c0 .6-.4 1.3-1 1.6-.5.3-1-.1-1-.9 0-.9.5-1.6 1-1.6.6 0 1 .4 1 .9zm-5 7.2c0 .5-.4.9-1 .9-.5 0-1-.7-1-1.6 0-.8.5-1.2 1-.9.6.3 1 1 1 1.6zm6.3 7.3c.6 1.6-1.9 3-2.8 1.6-.7-1.1.2-3 1.5-3 .4 0 1 .6 1.3 1.4zM154 381c0 .5-.5 1-1.1 1-.5 0-.7-.5-.4-1 .3-.6.8-1 1.1-1 .2 0 .4.4.4 1zm-11.1 2c1.2.7.5.9-2.6 1-4.7 0-7.3-.8-7.3-2.2 0-1.2 7.4-.3 9.9 1.2zm-25.9 3.1c0 2.3-1.9 2.9-5 1.5-3.3-1.3-3.3-1.3-2.7-2.3.3-.4 2.1-.8 4.1-.9 2.8 0 3.6.3 3.6 1.7zm8.1 10.2c-1.3 1.3-2.6.3-1.6-1.2.3-.6 1.1-.8 1.7-.5.6.4.6 1-.1 1.7zm39.4.7c-.3.5-1.4 1-2.3 1-1.5 0-1.5-.2-.2-1 2-1.3 3.3-1.3 2.5 0zm-43.6 6.4c.9 1 .8 1.5-.3 1.9-1.6.7-2.6-.1-2.6-2 0-1.7 1.4-1.7 2.9.1zm47.8.2c-.3.3-1.2.4-1.9.1-.8-.3-.5-.6.6-.6 1.1-.1 1.7.2 1.3.5zm-25.3 4.3c.3.5-.3 1.1-1.4 1.4-2 .5-3.5-.5-2.3-1.7.9-.9 3.1-.7 3.7.3zm336.1 2.5c6.5 1.8 27.6 11.8 29.4 14 .9 1-.1 1-5.2-.1-8-1.6-12.6-1.6-21.2.2-21.5 4.5-39.2 22.3-43.5 43.7l-1.1 5.7-9.3-.6c-17.8-1.1-32.1 4.1-44.2 16.1-8 8.1-12.3 15.9-15.2 27.6l-1.9 7.5-1.4-6c-2.2-9.6-1.7-32.2 1-42 9.1-34 36.3-59.9 70.1-67.1 8.8-1.8 34.3-1.2 42.5 1zm-282 16.6c2 2.2.9 2.6-2.9.9-1.4-.7-2.3-1.6-2-2 .9-1.5 3-1 4.9 1.1zm-27 6c0 .7-1.9 2-4.2 2.7-2.5.9-4.5 2.2-4.8 3.4-1 2.9-2.5 2.3-2.5-1.1 0-3 1.6-4.4 6.9-6 3.3-1 4.6-.7 4.6 1zm36.8 8.5c.1.5-.6 1.1-1.5 1.3-1.1.2-1.8-.3-1.8-1.3 0-1.7 3-1.8 3.3 0zm-10.3 28c1.3 1.4 2.1 2.8 1.7 3.1-.7.8-6.7-3.4-6.7-4.7 0-1.7 2.7-.9 5 1.6z"/><path d="M489.2 483c-2.9.4-6.3 1.5-7.7 2.4-6.8 4.5-11.1 17.2-10.2 29.8.4 4.3.5 7.8.3 7.8s-2.3-1.1-4.7-2.4c-10.3-5.7-24.1-7.1-31.7-3.2-5.4 2.8-11.7 16.5-8.9 19.3 1.6 1.6 11.5 2.7 16.2 1.9 2.3-.5 5-2.1 7.5-4.8 3.7-3.7 4.2-3.9 7-3 7.2 2.6 20.5 14 30.7 26.5 4.1 4.9 12.3 2.7 12.3-3.4 0-.9-2.3-5.3-5-9.9-5.5-9.2-9.5-20.4-10.6-29.8l-.6-6.1 4-1.1c6.1-1.6 9.9-5.3 11.7-11.3 1.8-6.2 2-12.7.3-12.7-.7 0-2.2-.2-3.3-.4-1.1-.2-4.4 0-7.3.4z"/></svg>